<svg id="Layer_1" data-name="Layer 1" xmlns="http://www.w3.org/2000/svg" viewBox="0 0 1411.58 336.31"><defs><style>.cls-1{fill:#0090ba;}.cls-2{fill:#93d500;}</style></defs><path class="cls-1" d="M132.45,73.85A4.84,4.84,0,0,1,137.61,79v88.43l95-89.53a15.41,15.41,0,0,1,10.69-4.06h33.16c3.31,0,4.78,3.32,2.21,5.9L190.3,160.43l93.21,108a3.72,3.72,0,0,1-2.95,6.26H251.08A14,14,0,0,1,240,269.86L166,182.17,137.61,205v64.48a4.84,4.84,0,0,1-5.16,5.15H109.24a4.83,4.83,0,0,1-5.16-5.15V79a4.83,4.83,0,0,1,5.16-5.16Z"/><path class="cls-1" d="M388.85,70.91c58.58,0,100.95,43.83,100.95,103.52v10.68c0,2.95-1.48,4.79-4.42,4.79H319.58c5.53,32.8,31.32,56.38,71.11,56.38,24.68,0,44.21-7,65.21-24.32a4,4,0,0,1,5.9,1.11l14,17.67c1.47,2.21,1.47,4.8-.74,6.64-24.68,21-53.79,30.21-84.37,30.21-63.37,0-106.1-43.84-106.1-103.16C284.59,114.74,329.17,70.91,388.85,70.91ZM319.22,159H455.54c-4.06-32.05-31.32-56.75-66.69-56.75C352.37,102.21,324.37,125.8,319.22,159Z"/><path class="cls-1" d="M687.61,101.85a3.7,3.7,0,0,1,0,5.53l-14.37,18.05a4.67,4.67,0,0,1-6.63.37c-17.69-15.11-39.06-23.59-66-23.59-30.58,0-47.16,8.85-47.16,24.33,0,15.1,21.74,22.47,53.06,26.16,51.21,5.89,88.05,21,88.05,63.74,0,40.52-40.15,61.15-89.53,61.15-36.84,0-68.52-10.31-93.57-33.53-1.85-1.84-1.85-4.05,0-6.26l14.36-18.05c1.84-2.58,4.79-2.58,7-.74,20.26,19.16,43.84,27.27,72.21,27.27,36.48,0,56.37-12.53,56.37-29.84,0-19.91-22.47-26.54-59.32-31-42-5.15-81.79-16.57-81.79-58.94,0-33.53,32.06-55.63,81.06-55.63C632.72,70.91,665.14,81.59,687.61,101.85Z"/><path class="cls-1" d="M822.79,70.91c58.58,0,101,43.83,101,103.52v10.68c0,2.95-1.48,4.79-4.42,4.79H753.53c5.52,32.8,31.31,56.38,71.1,56.38,24.69,0,44.21-7,65.22-24.32a3.94,3.94,0,0,1,5.89,1.11l14,17.67c1.48,2.21,1.48,4.8-.73,6.64-24.69,21-53.8,30.21-84.38,30.21-63.37,0-106.1-43.84-106.1-103.16C718.53,114.74,763.11,70.91,822.79,70.91ZM753.16,159H889.48c-4.05-32.05-31.32-56.75-66.69-56.75C786.32,102.21,758.31,125.8,753.16,159Z"/><path class="cls-1" d="M960.18,73.85h19.16c2.95,0,4.79,1.85,5.16,4.79l2.21,15.84h2.21c14-15.47,33.16-23.57,54.53-23.57,25.42,0,47.16,10.31,61.89,31.67a80.22,80.22,0,0,1,64.11-31.67c41.63,0,78.84,23.57,78.84,81.05V269.49c0,3.68-2.21,5.15-5.16,5.15h-23.21a4.83,4.83,0,0,1-5.15-5.15V153.43c0-34.26-18.8-51.22-46.43-51.22-20.26,0-38.68,12.17-51.21,28.38a157.07,157.07,0,0,1,1.48,20.26V269.49c0,3.31-1.85,5.15-5.16,5.15h-23.21a4.84,4.84,0,0,1-5.17-5.15V152c0-32.79-15.46-49.75-43.46-49.75-21,0-39.8,11.8-53.06,31V269.49c0,3.31-2.21,5.15-4.79,5.15H959.44c-2.58,0-4.42-1.84-4.42-5.15V79A4.84,4.84,0,0,1,960.18,73.85Z"/><path class="cls-1" d="M1264.55,262.62a10.84,10.84,0,0,1,.89-4.39,11.28,11.28,0,0,1,2.42-3.56,11.65,11.65,0,0,1,3.59-2.4,11.25,11.25,0,0,1,8.77,0,11.65,11.65,0,0,1,3.59,2.4,11.28,11.28,0,0,1,2.42,3.56,10.84,10.84,0,0,1,.89,4.39,10.58,10.58,0,0,1-.89,4.35,11.09,11.09,0,0,1-2.42,3.54,11.42,11.42,0,0,1-3.59,2.38,11.49,11.49,0,0,1-8.77,0,11.42,11.42,0,0,1-3.59-2.38,11.09,11.09,0,0,1-2.42-3.54A10.58,10.58,0,0,1,1264.55,262.62Zm1.78,0a9.31,9.31,0,0,0,.74,3.66,9.92,9.92,0,0,0,2,3.05,9.56,9.56,0,0,0,3,2.05,9.7,9.7,0,0,0,7.43,0,9.56,9.56,0,0,0,3-2.05,9.92,9.92,0,0,0,2-3.05,9.31,9.31,0,0,0,.74-3.66,9.46,9.46,0,0,0-.74-3.72,9.46,9.46,0,0,0-5-5,9.7,9.7,0,0,0-7.43,0,9.46,9.46,0,0,0-5,5A9.46,9.46,0,0,0,1266.33,262.62Zm12.23,6.19-2.72-4.91h-1.79v4.91h-3V256.13h5.45a7.65,7.65,0,0,1,1.73.2,4.88,4.88,0,0,1,1.54.64,3.32,3.32,0,0,1,1.11,1.21,4,4,0,0,1,.42,1.91,3.16,3.16,0,0,1-.72,2.13,4.32,4.32,0,0,1-1.8,1.24l3.36,5.35Zm-2.18-7.09a2,2,0,0,0,1.26-.44,1.43,1.43,0,0,0,.57-1.19,1.19,1.19,0,0,0-.64-1.14,2.55,2.55,0,0,0-1.19-.34h-2.33v3.11Z"/><path class="cls-2" d="M1287,138a35.09,35.09,0,0,1-7.48,1.19c-16.1,1-29.08-13.16-30-14.13-3.49-3.75-6.72-8.72-9.46-12.68-.74-1.07,0,0-2.4-4.67-.34-.67,2.07-.71,2.39-1.57s2.14.71,3,.09c2.52-1.79,21.72-6.94,32.81-5.07,7.75,1.31,12.45,4.59,13.45,9.33,4.74.26,7.38,2.17,8.78,3.81,2.13,2.48,2.9,6,2.2,9.82C1299.38,129.27,1296.21,135.37,1287,138Zm-31.54-33c-4.35.18-10.77,0-11.41,1.71l-1.2,1.42c-1.11,3,2.25,6.55,8.52,13.45l.9,1c.12.14,12.9,13.78,27,12.94,10.19-.61,16-4.67,17.4-12.06a8,8,0,0,0-1.38-6.77c-1.5-1.75-4.12-2.63-7.58-2.55a1.78,1.78,0,0,1-1.31-.51,1.81,1.81,0,0,1-.57-1.29c-.1-5-6.71-6.73-10.59-7.55C1264.94,102.58,1261.56,103.27,1255.47,105ZM1243.73,110h0Z"/><path class="cls-1" d="M1261.82,104.51c-8.21,1.43-26.32-1.31-15.92,10.89.22.25-1.36,2.68-3.11.88-1.55-1.59-4.2-5.84-6-9.42a67.41,67.41,0,0,1-3.32-8.36c1.29-1,2.49,2.63,2.3,2.06a1.77,1.77,0,0,1-.09-.72h0a9.52,9.52,0,0,0-.15-1.24h0c-1.54-9.06,2.12-20.85,8.54-33.18,7.14-13.74,16.3-23.35,25.12-26.38,4-1.36,7.27-1,9.73.94,4.21,3.41,5.49,11.34,3.92,24.24-.22,1.79,1.46,3.83,3.57,6,7.88,8.24,5.43,17.6-1.28,24.22C1276.87,102.68,1264.46,104.05,1261.82,104.51Zm-15.93-2.75c3.7-.61,8.65-.26,16.61-1.1,6.81-.71,17.24-5.42,19.94-8.67,8.82-10.58,5.7-14.29,1.25-19.28-2.41-2.7-4.9-5.49-4.48-8.93,1.82-14.93-.84-19.52-2.58-20.93-1.43-1.16-3.54-1.46-6.21-.32-15.11,6.46-28,30.94-31.06,47.87-.59,3.25-.48,12.17.69,14.25C1241.55,102.33,1244,102.23,1245.89,101.76Z"/><path class="cls-1" d="M1243.63,116.4a1.36,1.36,0,0,1-1-.44c-8.43-9-14.55-28.66-13.37-42.84a1.37,1.37,0,0,1,2.73.22c-1.13,13.53,4.66,32.19,12.64,40.76a1.37,1.37,0,0,1-1,2.3Z"/></svg>